<svg width="331" height="199" viewBox="0 0 331 199" fill="none" xmlns="http://www.w3.org/2000/svg">
<g clip-path="url(#clip0_12401_54812)">
<path d="M265.5 197.838C265.5 198.089 265.298 198.291 265.046 198.291H65.9536C65.702 198.291 65.5 198.089 65.5 197.838C65.5 197.586 65.702 197.384 65.9536 197.384H265.046C265.298 197.384 265.5 197.586 265.5 197.838Z" fill="#3F3D56"/>
<path d="M203.699 175.752L205.986 185.282L199.124 187.188L197.6 176.896L203.699 175.752Z" fill="#FFB6B6"/>
<path d="M214.752 144.875L207.51 150.974L202.936 158.217L209.416 162.41L220.47 149.831L214.752 144.875Z" fill="#FFB6B6"/>
<path d="M212.465 81.9786L218.564 102.563C218.564 102.563 245.629 126.197 242.96 131.152C240.292 136.108 222.376 149.831 222.376 149.831C222.376 149.831 223.706 154.219 219.801 152.406C215.896 150.593 211.703 145.638 211.703 145.638C211.703 145.638 211.703 141.826 213.609 142.588C215.515 143.351 224.282 133.058 224.282 133.058L205.222 115.524V174.157C205.222 174.157 209.797 178.156 205.222 178.479C200.648 178.801 196.455 179.564 196.455 179.564C196.455 179.564 191.118 177.658 193.024 175.752L187.306 144.494L183.113 106.375L186.163 86.5529L212.465 81.9786Z" fill="#2F2E41"/>
<path d="M200.268 184.138C200.268 184.138 200.649 182.613 202.174 182.613H206.831C206.831 182.613 208.273 189.094 207.892 189.094C207.511 189.094 213.991 197.48 207.13 197.861C200.268 198.242 198.362 197.48 198.362 197.48L197.6 194.471C197.6 194.471 196.456 192.524 196.838 191C197.219 189.475 200.268 184.138 200.268 184.138Z" fill="#2F2E41"/>
<path d="M209.797 159.361C209.797 159.361 214.176 159.292 213.13 160.47C212.085 161.648 210.179 163.554 210.179 163.554C210.179 163.554 205.645 172.702 203.528 170.987C201.411 169.272 197.98 150.212 199.124 147.925C200.268 145.638 201.792 145.638 201.792 145.638L208.825 149.867C208.825 149.867 204.461 160.504 209.797 159.361Z" fill="#2F2E41"/>
<path d="M199.124 49.5774L200.649 40.0476L190.357 35.8545L188.832 50.3398L199.124 49.5774Z" fill="#FFB6B6"/>
<path opacity="0.1" d="M199.124 49.5774L200.649 40.0476L190.357 35.8545L188.832 50.3398L199.124 49.5774Z" fill="#212529"/>
<path d="M188.259 48.2431L200.457 45.1936L213.418 49.3867C213.418 49.3867 219.136 65.3968 217.23 71.1147C215.324 76.8325 215.324 88.0012 215.324 88.0012C215.324 88.0012 215.133 83.1222 204.078 86.5529C193.024 89.9837 185.019 89.6025 185.019 89.6025L184.638 75.8796L179.849 63.6903C177.802 58.4802 180.008 52.5649 184.967 49.9675L188.259 48.2431Z" fill="#E6E6E6"/>
<path d="M244.254 93.1486C245.976 95.2107 246.307 97.7703 244.994 98.8654C243.682 99.9606 241.223 99.1766 239.501 97.1136C238.802 96.2989 238.309 95.3287 238.061 94.2841L230.879 85.4548L234.378 82.6234L241.727 91.2251C242.711 91.6553 243.578 92.3148 244.254 93.1486Z" fill="#FFB6B6"/>
<path d="M212.865 49.5085L210.365 59.4105L222.6 78.9957L235.091 91.5487L239.139 88.1901L226.542 72.5168L216.994 52.3222L212.865 49.5085Z" fill="#E6E6E6"/>
<path d="M241.992 39.951C250.705 39.3071 257.108 29.8495 256.293 18.827C255.479 7.80437 247.755 -0.609217 239.042 0.0346809C230.329 0.678579 223.926 10.1361 224.741 21.1587C225.555 32.1813 233.279 40.5949 241.992 39.951Z" fill="#FA4070"/>
<path d="M241.661 39.951H240.898V115.975H241.661V39.951Z" fill="#2F2E41"/>
<path d="M241.85 38.3456L241.942 41.0395L243.159 43.5333L238.08 43.2742L240.215 41.1268L239.974 38.679L241.85 38.3456Z" fill="#FA4070"/>
<path d="M196.523 43.111C202.319 43.111 207.018 38.412 207.018 32.6154C207.018 26.8189 202.319 22.1199 196.523 22.1199C190.726 22.1199 186.027 26.8189 186.027 32.6154C186.027 38.412 190.726 43.111 196.523 43.111Z" fill="#FFB6B6"/>
<path d="M195.686 18.5049C195.99 18.6822 196.397 18.414 196.494 18.0761C196.591 17.7382 196.478 17.3794 196.365 17.0462L195.799 15.3689C195.397 14.1794 194.971 12.9482 194.101 12.0428C192.789 10.6763 190.702 10.3286 188.824 10.5805C186.412 10.9039 184.032 12.21 182.911 14.3697C181.789 16.5295 182.267 19.5431 184.293 20.8906C181.405 24.2009 180.398 27.8902 180.557 32.2805C180.716 36.6708 185.5 40.7113 188.62 43.8041C189.317 43.3817 189.951 41.4023 189.567 40.6833C189.184 39.9642 189.733 39.1311 189.259 38.4688C188.784 37.8065 188.387 38.8611 188.867 38.2025C189.17 37.7869 187.988 36.8309 188.438 36.5822C190.615 35.3791 191.338 32.6663 192.705 30.5888C194.354 28.083 197.176 26.3861 200.162 26.1046C201.807 25.9495 203.545 26.2304 204.893 27.1854C206.242 28.1405 207.115 29.8471 206.802 31.4696C207.612 30.6474 208.015 29.4424 207.863 28.2984C207.711 27.1545 207.007 26.0966 206.011 25.5144C206.617 23.5108 206.097 21.2061 204.691 19.6556C203.285 18.1052 197.58 18.3692 195.527 18.7773" fill="#2F2E41"/>
<path d="M195.367 26.1654C192.647 26.4589 190.684 28.8144 189.026 30.9896C188.071 32.2434 187.07 33.6279 187.094 35.2041C187.118 36.7977 188.183 38.1646 188.693 39.6748C189.525 42.1433 188.714 45.0803 186.732 46.7717C188.69 47.1432 190.807 45.6753 191.144 43.7115C191.538 41.4254 189.805 39.219 190.01 36.9084C190.191 34.8727 191.795 33.306 193.159 31.7839C194.523 30.2619 195.804 28.2421 195.176 26.2971" fill="#2F2E41"/>
<path d="M185.356 89.4116H106.957C98.0666 89.4116 90.8594 96.6188 90.8594 105.509V181.532C90.8594 190.422 98.0666 197.629 106.957 197.629H185.356C194.247 197.629 201.454 190.422 201.454 181.532V105.509C201.454 96.6188 194.247 89.4116 185.356 89.4116Z" fill="white"/>
<path d="M185.357 198.01H106.957C97.871 198.01 90.4785 190.618 90.4785 181.532V105.509C90.4785 96.423 97.871 89.0305 106.957 89.0305H185.357C194.443 89.0305 201.836 96.423 201.836 105.509V181.532C201.836 190.618 194.443 198.01 185.357 198.01ZM106.957 89.7929C98.2913 89.7929 91.2409 96.8433 91.2409 105.509V181.532C91.2409 190.198 98.2913 197.248 106.957 197.248H185.357C194.023 197.248 201.073 190.198 201.073 181.532V105.509C201.073 96.8433 194.023 89.7929 185.357 89.7929H106.957Z" fill="#3F3D56"/>
<path d="M177.084 96.8903C178.088 96.8903 178.901 96.0764 178.901 95.0724C178.901 94.0684 178.088 93.2545 177.084 93.2545C176.08 93.2545 175.266 94.0684 175.266 95.0724C175.266 96.0764 176.08 96.8903 177.084 96.8903Z" fill="#3F3D56"/>
<path d="M182.084 96.8903C183.088 96.8903 183.901 96.0764 183.901 95.0724C183.901 94.0684 183.088 93.2545 182.084 93.2545C181.08 93.2545 180.266 94.0684 180.266 95.0724C180.266 96.0764 181.08 96.8903 182.084 96.8903Z" fill="#3F3D56"/>
<path d="M187.084 96.8903C188.088 96.8903 188.901 96.0764 188.901 95.0724C188.901 94.0684 188.088 93.2545 187.084 93.2545C186.08 93.2545 185.266 94.0684 185.266 95.0724C185.266 96.0764 186.08 96.8903 187.084 96.8903Z" fill="#3F3D56"/>
<path d="M104.388 171.015C103.823 171.015 103.363 171.474 103.363 172.039C103.363 172.314 103.47 172.569 103.663 172.757C103.857 172.956 104.112 173.063 104.388 173.063H186.381C186.946 173.063 187.406 172.604 187.406 172.039C187.406 171.763 187.299 171.509 187.106 171.321C186.911 171.121 186.656 171.015 186.381 171.015H104.388Z" fill="#E6E6E6"/>
<path d="M148.23 170.673V173.404H104.387C104.012 173.404 103.67 173.254 103.424 173.001C103.172 172.756 103.021 172.414 103.021 172.039C103.021 171.288 103.636 170.673 104.387 170.673L148.23 170.673Z" fill="#FA4070"/>
<path d="M184.675 165.552H171.018C169.512 165.552 168.287 164.327 168.287 162.821C168.287 161.314 169.512 160.089 171.018 160.089H184.675C186.181 160.089 187.406 161.314 187.406 162.821C187.406 164.327 186.181 165.552 184.675 165.552Z" fill="#E6E6E6"/>
<path d="M133.369 167.504L123.823 135.427L123.092 135.645L132.605 167.609" fill="#2F2E41"/>
<path d="M133.699 94.5036C142.412 93.8597 148.815 84.4022 148 73.3796C147.186 62.357 139.462 53.9434 130.749 54.5873C122.036 55.2312 115.633 64.6887 116.448 75.7113C117.262 86.7339 124.986 95.1475 133.699 94.5036Z" fill="#FA4070"/>
<path d="M133.368 94.5037H132.605V170.528H133.368V94.5037Z" fill="#2F2E41"/>
<path d="M124.251 134.498L125.107 137.054L126.985 139.097L122.043 140.297L123.477 137.63L122.548 135.353L124.251 134.498Z" fill="#FA4070"/>
<path d="M133.557 92.8982L133.649 95.5921L134.866 98.0859L129.787 97.8269L131.922 95.6794L131.681 93.2316L133.557 92.8982Z" fill="#FA4070"/>
<path d="M124.507 135.168C132.668 132.047 136.081 121.147 132.132 110.824C128.183 100.501 118.367 94.6633 110.207 97.7849C102.047 100.906 98.6329 111.806 102.582 122.129C106.531 132.452 116.347 138.29 124.507 135.168Z" fill="#FA4070"/>
<path d="M193.776 85.5095C196.347 86.2859 198.031 88.2419 197.536 89.8783C197.042 91.5147 194.557 92.2115 191.985 91.4345C190.953 91.1383 190.007 90.5992 189.227 89.8625L178.373 86.4355L179.739 82.147L190.607 85.292C191.666 85.1105 192.752 85.185 193.776 85.5095Z" fill="#FFB6B6"/>
<path d="M174.918 57.3918L186.354 49.0056L185.973 65.0157L175.3 78.7386L186.735 83.3129L186.354 89.8442C186.354 89.8442 171.869 86.3624 169.582 85.9812C167.295 85.6 165.389 80.2634 165.389 80.2634L174.918 57.3918Z" fill="#E6E6E6"/>
</g>
<defs>
<clipPath id="clip0_12401_54812">
<rect width="200" height="198.291" fill="white" transform="translate(65.5)"/>
</clipPath>
</defs>
</svg>
